<svg id="Calque_1" data-name="Calque 1" xmlns="http://www.w3.org/2000/svg" viewBox="0 0 215.4 264.98"><defs><style>.cls-1,.cls-3{fill:#f8b236;}.cls-2{fill:#fff;}.cls-3{stroke:#f8b236;stroke-linecap:round;stroke-miterlimit:10;stroke-width:4px;}.cls-4{fill:#339;}</style></defs><path class="cls-1" d="M447.11,515.79c-3.36-.27-5.59-1.49-6.66-3.18-1.91-3-3.79-6.14-4.56-9.33-1.27-5.28-.17-10.51,3.79-15.36a9,9,0,0,1,6.73-3.78c3.22-.24,3.81-1.34,3.7-3.11,0-.71-.06-1.43-.07-2.15H450l.11-.05c0-2.18,0-4.36,0-6.54h0c.05-29.9,0-192.21,0-211.12,0-5.57-.52-6.1-6-6.11q-89.8,0-179.6,0c-17.14,0-29.8,12.19-29.73,29.23.31,68.22.09,136.45.09,204.67a.15.15,0,0,1-.05.06q0,5.07,0,10.14a16,16,0,0,0,2,7.34c4.45,8.42,16.52,13.48,31.66,13.48H441.11c1.88,0,3.76.06,5.63,0,2.09-.05,3.61-.88,3.28-2.1A4,4,0,0,0,447.11,515.79ZM260.57,477.27c-.1,2.06-.81,3.07-3.11,3.67-6.22,1.62-11.22,5.3-16,10.84V283.15c0-11.45,7-19.39,18.87-21,.05,1.12.15,2.2.15,3.3q0,105.61.06,211.23C260.58,476.87,260.58,477.08,260.57,477.27Zm6.72,2V262H443.44V475.06l.16,0v4.19Z" transform="translate(-234.72 -255.01)"/><path class="cls-1" d="M260.58,476.65c0,.22,0,.43,0,.62-.1,2.06-.81,3.07-3.11,3.67-6.22,1.62-11.22,5.3-16,10.84V283.15c0-11.45,7-19.39,18.87-21,.05,1.12.15,2.2.15,3.3Q260.53,371,260.58,476.65Z" transform="translate(-234.72 -255.01)"/><path class="cls-1" d="M443.6,475.08v4.19H267.29V262H443.44V475.06Z" transform="translate(-234.72 -255.01)"/><path class="cls-2" d="M241.5,489.27V282.32c0-11.46,7-19.4,18.86-21,.06,1.12.16,2.21.16,3.3q0,105.62.06,211.23c0,2.48-.59,3.64-3.12,4.29C251.24,481.72,246.23,483.74,241.5,489.27Z" transform="translate(-234.72 -255.01)"/><path class="cls-2" d="M266.78,262.12H442.93v59.14l.13,136s0,14.59,0,22.14H266.78Z" transform="translate(-234.72 -255.01)"/><path class="cls-2" d="M435,515.65c-.73,0-1.44.08-2.14.08q-82.89,0-165.77,0c-13,0-22.92-5.26-25.24-13.09-2.72-9.17,8.29-18,23.14-18.52,1.24,0,2.5,0,3.75,0H435.14C426.75,498.05,426.74,501.17,435,515.65Z" transform="translate(-234.72 -255.01)"/><line class="cls-3" x1="29.61" y1="244.89" x2="177.56" y2="244.89"/><path class="cls-4" d="M346.16,415.43c3.39,0,6.46-.22,9.47.09,1.47.15,3.41,1,4.08,2.09.57,1,.06,3.13-.71,4.26q-12.22,18.09-24.7,36c-2.24,3.23-4.78,3.16-7.07-.14C319,445.84,310.78,434,302.71,422c-.81-1.2-1.3-3.43-.71-4.53s2.67-1.8,4.17-1.95c2.92-.3,5.9-.09,9.27-.09V344c0-4.78,1-5.79,5.69-5.8h19.59c4.35,0,5.44,1.1,5.44,5.45v71.8Zm3.75,7.13h-5.57c-4.49,0-5.32-.85-5.32-5.4q0-34,0-68.07v-3.44H322.6v44.84q0,13.53,0,27.05c0,4.11-.95,5-5.11,5H311.7l19.12,27.75Z" transform="translate(-234.72 -255.01)"/><path class="cls-4" d="M392,325v71.6c0,4.87-.77,5.62-5.72,5.62h-19.6c-4.3,0-5.23-.91-5.24-5.22q0-34,0-68.1V325c-3.37,0-6.42.21-9.42-.09-1.49-.14-3.58-.85-4.14-1.94s0-3.32.78-4.53c8-11.9,16.2-23.71,24.36-35.52,2.49-3.6,4.91-3.6,7.39,0,8.16,11.81,16.34,23.62,24.37,35.52.81,1.2,1.35,3.39.79,4.5s-2.62,1.84-4.1,2C398.46,325.21,395.39,325,392,325Zm-7.15,70v-3.84q0-34.06,0-68.12c0-4,1.16-5.15,5.09-5.19,1.74,0,3.48,0,5.82,0l-19-27.65-19,27.65h4.09c6.19,0,6.82.63,6.82,6.77V395Z" transform="translate(-234.72 -255.01)"/></svg>