<svg id="Calque_1" data-name="Calque 1" xmlns="http://www.w3.org/2000/svg" viewBox="0 0 384 374.15"><path d="M233,115.48c.37-1,.76-2.09,1.09-3.15A17.69,17.69,0,0,1,262.33,104c1.44,1.19,2.73,2.56,4.05,3.88q77.4,77.24,154.77,154.48c3.86,3.85,3.86,3.85,7.71,0q78-77.9,156.06-155.84c5.37-5.37,11.39-8,18.92-5.92,6.14,1.68,10,5.83,12.06,11.77.36,1,.73,2.1,1.1,3.15v3.74c-1.49,6.67-6,11.23-10.65,15.85q-83.55,83.25-167,166.62c-3.63,3.63-7.51,6.47-12.89,6.84-6.21.42-11.05-2-15.35-6.31q-38.22-38.3-76.56-76.46-45.45-45.36-90.92-90.69c-4.65-4.62-9.17-9.18-10.67-15.85Z" transform="translate(-233 -99.84)"/><path d="M617,284.67c-1.53,6.82-6.29,11.38-11,16.08q-83.43,83.16-166.73,166.44c-5.71,5.71-12.1,8.44-19.93,5.77a20.42,20.42,0,0,1-7.45-4.81q-86.38-86-172.51-172.31c-2.93-2.93-4.29-7.41-6.38-11.17v-3.74c.36-1.05.74-2.1,1.07-3.17a17.68,17.68,0,0,1,28.21-8.51c1.44,1.18,2.73,2.56,4.06,3.88l154.8,154.51c3.86,3.86,3.88,3.86,7.73,0q77.92-77.79,155.84-155.6c3.83-3.83,8-6.72,13.67-6.77,8.76-.08,15.27,4.72,17.7,13.21.24.83.61,1.62.92,2.43Z" transform="translate(-233 -99.84)"/></svg>