<svg id="Calque_1" data-name="Calque 1" xmlns="http://www.w3.org/2000/svg" viewBox="0 0 215.4 264.98"><defs><style>.cls-1{fill:#fff;}.cls-2{fill:#f8b236;}.cls-3{fill:#fcfcfc;stroke:#fff;stroke-linecap:round;stroke-miterlimit:10;stroke-width:4px;}</style></defs><path class="cls-1" d="M494.71,447.29c-3.36-.27-5.58-1.49-6.66-3.18-1.91-3-3.79-6.14-4.56-9.33-1.27-5.28-.17-10.51,3.8-15.36a8.91,8.91,0,0,1,6.72-3.78c3.22-.24,3.81-1.34,3.7-3.11,0-.71-.06-1.43-.06-2.15h-.07a.43.43,0,0,1,.12-.05c0-2.18,0-4.36,0-6.54h0c0-29.9,0-192.21,0-211.12,0-5.57-.53-6.1-6.05-6.11q-89.8,0-179.6,0c-17.13,0-29.8,12.19-29.73,29.23.31,68.22.1,136.45.1,204.67l-.05.06v10.14a16,16,0,0,0,2,7.34c4.45,8.42,16.52,13.48,31.67,13.48q86.34,0,172.72,0c1.87,0,3.75.06,5.62,0,2.09-.05,3.61-.88,3.28-2.1A4,4,0,0,0,494.71,447.29ZM308.17,408.77c-.1,2.06-.8,3.07-3.11,3.67-6.21,1.62-11.22,5.3-15.95,10.84V214.65c0-11.45,7-19.39,18.86-21,0,1.12.15,2.2.15,3.3q0,105.61.07,211.23C308.19,408.37,308.18,408.58,308.17,408.77Zm6.72,2V193.45H491V406.56l.16,0v4.19Z" transform="translate(-282.32 -186.51)"/><path class="cls-2" d="M308.19,408.15c0,.22,0,.43,0,.62-.1,2.06-.8,3.07-3.11,3.67-6.21,1.62-11.22,5.3-15.95,10.84V214.65c0-11.45,7-19.39,18.86-21,0,1.12.15,2.2.15,3.3Q308.14,302.53,308.19,408.15Z" transform="translate(-282.32 -186.51)"/><path class="cls-2" d="M491.2,406.58v4.19H314.89V193.45H491V406.56Z" transform="translate(-282.32 -186.51)"/><path class="cls-2" d="M289.1,420.77V213.82c0-11.46,7-19.4,18.87-21,0,1.12.15,2.21.15,3.3q0,105.61.06,211.23c0,2.48-.59,3.64-3.12,4.29C298.84,413.22,293.83,415.24,289.1,420.77Z" transform="translate(-282.32 -186.51)"/><path class="cls-2" d="M314.38,193.62H490.53v59.14l.13,136s0,14.59,0,22.14H314.38Z" transform="translate(-282.32 -186.51)"/><path class="cls-2" d="M482.64,447.15c-.74,0-1.45.08-2.15.08q-82.87,0-165.77,0c-13,0-22.92-5.26-25.24-13.09-2.72-9.17,8.3-18,23.14-18.52,1.24,0,2.5,0,3.75,0H482.75C474.35,429.55,474.34,432.67,482.64,447.15Z" transform="translate(-282.32 -186.51)"/><line class="cls-3" x1="29.61" y1="244.89" x2="177.56" y2="244.89"/><path class="cls-1" d="M480.83,289A23.54,23.54,0,0,1,478,291c-3.95,2.11-7.93,4.15-11.93,6.17a1.93,1.93,0,0,0-1.27,2c.07,4.9.05,9.8,0,14.7a1.71,1.71,0,0,0,1.08,1.78,7.56,7.56,0,0,1,4.24,7c.06,12.31,0,24.61,0,36.92q0,3.09-3.08,3.14c-3.28.06-6.57.06-9.85,0-2.07,0-3.06-1-3.06-3.12q0-18.45,0-36.91a7.82,7.82,0,0,1,4.46-7.19,1.66,1.66,0,0,0,.83-1.08c0-4.48,0-9,0-13.66-.56.23-1,.38-1.36.58-4.49,2.31-9,4.66-13.48,6.92a2,2,0,0,0-1.22,2.06c0,8.91-.08,17.83.06,26.74a12.86,12.86,0,0,1-5.6,11.08c-5.23,4-11.29,6-17.61,7.26A93.32,93.32,0,0,1,375.58,354,32.64,32.64,0,0,1,362,346.83a12,12,0,0,1-4-9.29c.07-9,0-17.93,0-26.9a2.39,2.39,0,0,0-1.5-2.52c-11-5.62-21.93-11.31-32.9-17-.37-.19-.73-.4-1.1-.58a2.8,2.8,0,0,1-1.87-2.64,2.92,2.92,0,0,1,1.92-2.61q11.19-5.76,22.35-11.55,26.63-13.77,53.26-27.58a5,5,0,0,1,5.11,0q37.36,19.41,74.76,38.74a18.58,18.58,0,0,1,2.77,2.13Zm-8.53-1c-.65-.35-1-.56-1.38-.75Q436.45,269.4,402,251.54a2.46,2.46,0,0,0-2.59.06q-34.32,17.79-68.67,35.53c-.44.23-.87.49-1.45.82.5.3.84.52,1.19.7q34.62,17.93,69.25,35.79a2.69,2.69,0,0,0,2.1,0q25.29-13,50.52-26.09c.33-.17.62-.42,1.15-.78l-32.19-4.21c-6.82-.89-13.65-1.75-20.46-2.68-2-.27-2.92-1.5-2.66-3.16s1.53-2.32,3.45-2.09l11.31,1.44q24.18,3.17,48.35,6.33a2.21,2.21,0,0,0,1.2-.13C465.67,291.43,468.85,289.77,472.3,288ZM363.36,311.77v1.86c0,7.76.11,15.53-.05,23.29a7.92,7.92,0,0,0,3.54,7c3.92,2.93,8.47,4.48,13.12,5.61a86.66,86.66,0,0,0,40.1.32c5.24-1.19,10.36-2.78,14.75-6.09a7.66,7.66,0,0,0,3.33-6.65c-.13-7.82,0-15.64,0-23.46v-1.95c-.72.36-1.22.6-1.71.86-11.1,5.73-22.21,11.44-33.28,17.22a4.6,4.6,0,0,1-4.7,0c-11.08-5.78-22.18-11.49-33.28-17.22C364.63,312.36,364.12,312.13,363.36,311.77Zm101.48,45.56V323.87c0-2.52-.93-3.84-2.69-3.84s-2.64,1.28-2.64,3.83q0,15.87,0,31.73v1.74Z" transform="translate(-282.32 -186.51)"/></svg>