<svg id="Calque_1" data-name="Calque 1" xmlns="http://www.w3.org/2000/svg" viewBox="0 0 357.63 306.85"><path d="M527,250.91c-.88,6.08-1.52,12.21-2.69,18.23-8.21,42.47-30.24,76.09-66.27,99.82-56.78,37.39-128.12,33.5-181.22-9.13-3.9-3.12-7.5-6.61-11-9.73L290.11,326c23.43,22.52,51.91,34.59,85.14,34.2,29.38-.34,55.32-10.4,77.37-29.9a118.7,118.7,0,0,0,25.46-146.66c-28.25-50.83-86.14-73-139.91-56.27C284.17,144.23,254,194,254.75,241h49.32l-68.15,67.94-66.53-66.54.67-1.12h49.81c.83-8.28,1.27-16.17,2.46-23.95,9.37-61.38,55.45-111,116.18-125.44,81.32-19.27,163.92,31,183.84,112.06,2,8,2.73,16.25,4.06,24.39.16,1,.4,2,.61,3Z" transform="translate(-169.39 -87.75)"/><path d="M356.77,173.14h25.5v4.14c0,21.65,0,43.29-.06,64.93a5,5,0,0,0,2.84,4.93c18.84,11.06,37.61,22.23,56.77,33.59-4.07,6.87-8.06,13.62-12.16,20.56-1.05-.54-2-1-2.83-1.48q-33.74-20-67.49-40c-1.69-1-2.8-1.94-2.79-4.24.1-26.76.06-53.53.07-80.29C356.62,174.69,356.7,174.11,356.77,173.14Z" transform="translate(-169.39 -87.75)"/></svg>