<svg id="Calque_1" data-name="Calque 1" xmlns="http://www.w3.org/2000/svg" viewBox="0 0 215.4 264.98"><defs><style>.cls-1,.cls-3{fill:#f8b236;}.cls-2{fill:#fdfeff;}.cls-3{stroke:#f8b236;stroke-linecap:round;stroke-miterlimit:10;stroke-width:4px;}.cls-4{fill:#332984;}</style></defs><path class="cls-1" d="M395,494.76c-3.36-.27-5.59-1.49-6.66-3.18-1.91-3-3.8-6.14-4.56-9.33-1.28-5.28-.17-10.51,3.79-15.36a8.92,8.92,0,0,1,6.72-3.78c3.22-.24,3.82-1.35,3.71-3.11,0-.72-.06-1.44-.07-2.16h-.07a.43.43,0,0,0,.12,0c0-2.17,0-4.35,0-6.54h0c.05-29.9,0-192.21,0-211.11,0-5.58-.53-6.1-6-6.11q-89.8,0-179.61,0c-17.13,0-29.8,12.19-29.72,29.22.31,68.22.09,136.45.09,204.68l-.05.06c0,3.38,0,6.75,0,10.13a16,16,0,0,0,2,7.34c4.44,8.42,16.52,13.48,31.66,13.48q86.35,0,172.72,0c1.87,0,3.76.07,5.63,0,2.09-.05,3.61-.88,3.28-2.1A4.05,4.05,0,0,0,395,494.76ZM208.44,456.24c-.1,2.05-.8,3.07-3.11,3.67-6.21,1.61-11.22,5.3-16,10.83V262.12c0-11.45,7-19.4,18.86-21,0,1.12.15,2.21.15,3.31q0,105.62.07,211.23C208.46,455.84,208.45,456.05,208.44,456.24Zm6.73,2V240.92H391.32V454l.15,0v4.19Z" transform="translate(-182.6 -233.98)"/><path class="cls-1" d="M208.46,455.62c0,.22,0,.43,0,.62-.1,2.05-.8,3.07-3.11,3.67-6.21,1.61-11.22,5.3-16,10.83V262.12c0-11.45,7-19.4,18.86-21,0,1.12.15,2.21.15,3.31Q208.41,350,208.46,455.62Z" transform="translate(-182.6 -233.98)"/><path class="cls-1" d="M391.47,454.05v4.19H215.17V240.92H391.32V454Z" transform="translate(-182.6 -233.98)"/><path class="cls-2" d="M189.38,468.24v-207c0-11.45,7-19.39,18.86-21,.06,1.12.16,2.21.16,3.3q0,105.61.06,211.23c0,2.48-.59,3.63-3.12,4.29C199.12,460.69,194.11,462.7,189.38,468.24Z" transform="translate(-182.6 -233.98)"/><path class="cls-2" d="M214.66,241.08H390.81v59.15l.12,136s0,14.6,0,22.14H214.66Z" transform="translate(-182.6 -233.98)"/><path class="cls-2" d="M382.91,494.62c-.73,0-1.44.08-2.15.08q-82.87,0-165.76,0c-13,0-22.93-5.26-25.24-13.08-2.72-9.17,8.29-18,23.13-18.52,1.25,0,2.5,0,3.76,0H383C374.63,477,374.62,480.13,382.91,494.62Z" transform="translate(-182.6 -233.98)"/><line class="cls-3" x1="29.61" y1="244.89" x2="177.56" y2="244.89"/><path class="cls-4" d="M383,350.9A80.61,80.61,0,0,1,377.41,379a2.82,2.82,0,0,1-3,2.11A2.48,2.48,0,0,1,372,379a4.94,4.94,0,0,1,.4-2.34,69.8,69.8,0,0,0,4.73-29.05c-1-19.14-8.31-35.62-21.35-49.51-11.37-12.11-25.24-19.94-41.73-22.32-22.65-3.28-43.14,2.14-60.77,17-14.43,12.16-23.36,27.75-25.81,46.48-4.05,31,7,55.7,32.7,73.47a73.2,73.2,0,0,0,45.75,13,70.9,70.9,0,0,0,34.39-10.55c.5-.3,1-.63,1.48-.92,1.74-1,3.37-.73,4.24.73s.41,3.05-1.41,4.07c-3.13,1.77-6.25,3.58-9.51,5.08-10.31,4.75-21.2,7.48-32.54,7.13-26.31-.82-48.78-10.07-65.15-31.59a78.4,78.4,0,0,1-15.08-37c-2.47-17.48,0-34.24,7.93-50,10.36-20.5,26.94-33.54,48.9-39.76a84.75,84.75,0,0,1,30.47-3.24A75.23,75.23,0,0,1,352.08,287a83,83,0,0,1,29.7,51.56C382.46,342.65,382.61,346.79,383,350.9Z" transform="translate(-182.6 -233.98)"/><path class="cls-4" d="M347.3,408.92H316.84c-3.7,0-4.81-1.88-3-5.15l30.6-56.12c.66-1.21,1.37-2.31,3-2.3s2.28,1.14,2.94,2.35l30.58,56.13c1.71,3.15.57,5.09-3,5.09Zm27-5.63c-9-16.52-17.91-32.78-26.9-49.26L320.5,403.29Z" transform="translate(-182.6 -233.98)"/><path class="cls-4" d="M299,347.47V307a11.19,11.19,0,0,1,0-1.74,2.68,2.68,0,0,1,2.69-2.49,2.73,2.73,0,0,1,2.82,2.53,10.87,10.87,0,0,1,0,1.4v42.4c0,3.08-.84,3.92-3.92,3.92h-25.6c-.41,0-.81,0-1.22,0a2.78,2.78,0,0,1,0-5.55c1-.07,2,0,3,0Z" transform="translate(-182.6 -233.98)"/><path class="cls-4" d="M299,287.39c0-1.34,0-2.68,0-4a2.78,2.78,0,1,1,5.55,0c0,2.67,0,5.35,0,8a2.76,2.76,0,0,1-2.79,2.94,2.79,2.79,0,0,1-2.75-3C299,290.07,299,288.73,299,287.39Z" transform="translate(-182.6 -233.98)"/><path class="cls-4" d="M254.36,299.66a17.28,17.28,0,0,1,2.46,1.55c1.8,1.71,3.55,3.49,5.28,5.28,1.39,1.44,1.46,3.13.25,4.29s-2.8,1-4.16-.29c-1.87-1.82-3.7-3.68-5.52-5.54-.87-.89-1.37-2-.65-3.14A12.86,12.86,0,0,1,254.36,299.66Z" transform="translate(-182.6 -233.98)"/><path class="cls-4" d="M349.32,299.83c.69.51,1.78.91,2.11,1.66a3.31,3.31,0,0,1-.07,2.86,75.1,75.1,0,0,1-6.57,6.66,2.73,2.73,0,0,1-3.8-3.83c2.06-2.27,4.28-4.4,6.49-6.53A6.74,6.74,0,0,1,349.32,299.83Z" transform="translate(-182.6 -233.98)"/><path class="cls-4" d="M239.05,353.05c-1.34,0-2.67,0-4,0a2.77,2.77,0,0,1-2.88-2.84,2.73,2.73,0,0,1,2.83-2.71q4.09-.09,8.19,0a2.75,2.75,0,0,1,2.89,2.83,2.79,2.79,0,0,1-2.84,2.72C241.84,353.1,240.44,353.05,239.05,353.05Z" transform="translate(-182.6 -233.98)"/><path class="cls-4" d="M364.56,353.05c-1.39,0-2.79.05-4.18,0a2.77,2.77,0,0,1-2.8-2.76,2.71,2.71,0,0,1,2.75-2.78q4.19-.11,8.36,0a2.77,2.77,0,1,1,.05,5.54C367.35,353.1,366,353.05,364.56,353.05Z" transform="translate(-182.6 -233.98)"/><path class="cls-4" d="M263.57,391.58a13.46,13.46,0,0,1-1.39,2.35c-1.75,1.85-3.56,3.65-5.38,5.42-1.48,1.43-3.09,1.49-4.29.22s-1.06-2.74.31-4.16a73.81,73.81,0,0,1,5.57-5.48,3.88,3.88,0,0,1,3.1-.63C262.31,389.53,262.86,390.74,263.57,391.58Z" transform="translate(-182.6 -233.98)"/><path class="cls-4" d="M304.61,413.25c0,1.28,0,2.56,0,3.84a2.8,2.8,0,0,1-2.74,3,2.75,2.75,0,0,1-2.8-2.92c-.06-2.68-.05-5.36,0-8a2.78,2.78,0,1,1,5.55-.07C304.65,410.46,304.61,411.85,304.61,413.25Z" transform="translate(-182.6 -233.98)"/><path class="cls-4" d="M344.61,379.08c0-2.49,0-5,0-7.48,0-2,1.07-3.14,2.7-3.17a2.83,2.83,0,0,1,2.84,3.08c0,5.1.06,10.21,0,15.31a2.71,2.71,0,0,1-2.91,3c-1.61-.06-2.6-1.16-2.63-3C344.59,384.19,344.61,381.64,344.61,379.08Z" transform="translate(-182.6 -233.98)"/><path class="cls-4" d="M350.18,396.46a2.79,2.79,0,0,1-2.7,2.84,2.75,2.75,0,0,1-.17-5.5A2.78,2.78,0,0,1,350.18,396.46Z" transform="translate(-182.6 -233.98)"/></svg>